<svg xmlns="http://www.w3.org/2000/svg" viewBox="0 0 64 64" role="img" aria-label="Beauty Hub logo">
  <defs>
    <linearGradient id="bg" x1="0%" x2="100%" y1="0%" y2="100%">
      <stop offset="0%" stop-color="#7c6cff" />
      <stop offset="100%" stop-color="#ee7ac7" />
    </linearGradient>
  </defs>
  <rect width="64" height="64" rx="18" fill="url(#bg)"/>
  <path d="M32 14c-8 0-14 6-14 14 0 10 8 18 14 22 6-4 14-12 14-22 0-8-6-14-14-14zm0 7c4 0 7 3 7 7 0 6-4 10-7 13-3-3-7-7-7-13 0-4 3-7 7-7zm-9 23h18v4H23v-4z" fill="#fff" opacity="0.95"/>
  <circle cx="32" cy="22" r="3" fill="#fff" opacity="0.9"/>
</svg>
